<?xml version="1.0" encoding="UTF-8" standalone="no"?>
<!-- Created with Inkscape (http://www.inkscape.org/) -->

<svg
   width="191.16449mm"
   height="113.63638mm"
   viewBox="0 0 191.16449 113.63638"
   version="1.1"
   id="svg5"
   xml:space="preserve"
   inkscape:version="1.2.1 (9c6d41e410, 2022-07-14)"
   sodipodi:docname="logo-mint-WHITE.svg"
   xmlns:inkscape="http://www.inkscape.org/namespaces/inkscape"
   xmlns:sodipodi="http://sodipodi.sourceforge.net/DTD/sodipodi-0.dtd"
   xmlns="http://www.w3.org/2000/svg"
   xmlns:svg="http://www.w3.org/2000/svg"><sodipodi:namedview
     id="namedview7"
     pagecolor="#ffffff"
     bordercolor="#000000"
     borderopacity="0.25"
     inkscape:showpageshadow="2"
     inkscape:pageopacity="0.0"
     inkscape:pagecheckerboard="0"
     inkscape:deskcolor="#d1d1d1"
     inkscape:document-units="mm"
     showgrid="false"
     inkscape:zoom="1.4142136"
     inkscape:cx="389.26227"
     inkscape:cy="255.26554"
     inkscape:window-width="1920"
     inkscape:window-height="1017"
     inkscape:window-x="1912"
     inkscape:window-y="-8"
     inkscape:window-maximized="1"
     inkscape:current-layer="layer1" /><defs
     id="defs2" /><g
     inkscape:label="Calque 1"
     inkscape:groupmode="layer"
     id="layer1"
     transform="translate(-21.932987,-72.859306)"><path
       id="path554-6"
       style="color:#000000;fill:#ffffff;fill-opacity:1;stroke:#ffffff;stroke-width:2;stroke-dasharray:none;stroke-opacity:1"
       d="m 70.822034,73.859574 -47.722669,81.314416 18.523934,30.15785 32.844507,-0.002 12.918075,-23.99233 14.172779,23.78769 32.28692,0.0605 13.79864,-24.63261 14.63993,24.57163 32.28692,0.0605 17.3731,-31.01361 -47.32631,-80.296909 -33.07033,-0.01499 -13.80278,23.518461 -13.85238,-23.502958 z m 6.410461,6.502446 22.945365,0.01085 42.26254,71.7088 -22.52369,0.0233 z m 60.725495,0 22.94537,0.01085 42.26253,71.7088 -22.52369,0.0233 z m -5.10925,4.123779 42.08373,70.734181 -11.19724,19.64273 -29.91187,-50.2052 -12.30158,-20.87108 z M 72.123246,84.486316 114.20698,155.2205 103.00973,174.86323 72.064335,122.92376 41.603662,172.87885 30.681848,155.09751 Z m -0.12299,51.027374 11.509375,19.31769 -12.665893,23.48487 -25.005192,0.10283 z m 69.296544,23.06888 -11.25357,20.09128 -21.68395,-0.0687 11.40034,-20.00033 z m 60.72549,0 -11.25357,20.09128 -21.68395,-0.0687 11.40034,-20.00033 z"
       sodipodi:nodetypes="cccccccccccccccccccccccccccccccccccccccccccccccccccccc" /></g></svg>
